# xmcd
#
# Track frame offsets:
#	150
#	13448
#	28444
#	38968
#	56881
#	69585
#	85633
#	98426
#
# Disc length: 1501 seconds
#
# Revision: 1
# Processed by: cddbd v1.5.2PL0 Copyright (c) Steve Scherf et al.
# Submitted via: audiograbber 1.83.01
#
DISCID=6905db08
DTITLE=Mercy Street Records - Special Winter Release
DYEAR=1900
DGENRE=Gospel
TTITLE0=Ed Enoch - Walk And Talk With Jesus
TTITLE1=Eventide - In The Twinkling Of An Eye
TTITLE2=The Scotts - Nobody Can Do It Like The Lord
TTITLE3=The Fox Brothers - The Robe
TTITLE4=Samson - The Bloodline
TTITLE5=Margo Smith - Mercy Train
TTITLE6=Eddie Anders - Vote Of One
TTITLE7=Carl Flory - Rowdy One
EXTD=
EXTT0=
EXTT1=
EXTT2=
EXTT3=
EXTT4=
EXTT5=
EXTT6=
EXTT7=
PLAYORDER=
